<svg width="161" height="127" viewBox="0 0 161 127" fill="none" xmlns="http://www.w3.org/2000/svg">
<path d="M30.8288 80.9559C24.5103 80.9559 19.1396 78.7444 14.7166 74.3215C10.2937 69.8985 8.08221 64.5278 8.08221 58.2093V35.4626C8.08221 33.3143 8.80884 31.5136 10.2621 30.0603C11.7154 28.607 13.5161 27.8804 15.6644 27.8804H106.84C107.472 23.7102 109.178 19.9823 111.958 16.6967C114.739 13.411 118.151 11.0732 122.194 9.68311L150.059 0.394907C152.081 -0.236944 154.04 -0.110574 155.935 0.774017C157.831 1.65861 159.095 3.11187 159.726 5.13379C160.358 7.15571 160.2 9.11445 159.253 11.01C158.305 12.9056 156.82 14.1693 154.798 14.8011L126.933 24.0893C125.417 24.5948 124.185 25.511 123.237 26.8379C122.289 28.1648 121.815 29.6496 121.815 31.2924V58.2093C121.815 64.5278 119.604 69.8985 115.181 74.3215C110.758 78.7444 105.387 80.9559 99.0687 80.9559H30.8288ZM53.5755 118.867V103.703H8.08221C5.93392 103.703 4.13314 102.976 2.67989 101.523C1.22663 100.069 0.5 98.2686 0.5 96.1203C0.5 93.972 1.22663 92.1712 2.67989 90.718C4.13314 89.2647 5.93392 88.5381 8.08221 88.5381H53.5755C57.7457 88.5381 61.3156 90.0229 64.2853 92.9927C67.255 95.9623 68.7399 99.5323 68.7399 103.703V118.867C68.7399 121.015 68.0133 122.816 66.56 124.269C65.1067 125.723 63.306 126.449 61.1577 126.449C59.0094 126.449 57.2086 125.723 55.7554 124.269C54.3021 122.816 53.5755 121.015 53.5755 118.867ZM83.9043 118.867V103.703C83.9043 99.5323 85.3892 95.9623 88.3589 92.9927C91.3286 90.0229 94.8985 88.5381 99.0687 88.5381H144.562C146.71 88.5381 148.511 89.2647 149.964 90.718C151.418 92.1712 152.144 93.972 152.144 96.1203C152.144 98.2686 151.418 100.069 149.964 101.523C148.511 102.976 146.71 103.703 144.562 103.703H99.0687V118.867C99.0687 121.015 98.3421 122.816 96.8888 124.269C95.4356 125.723 93.6348 126.449 91.4865 126.449C89.3382 126.449 87.5375 125.723 86.0842 124.269C84.6309 122.816 83.9043 121.015 83.9043 118.867Z" fill="white"/>
</svg>
